<svg xmlns="http://www.w3.org/2000/svg" width="1200" height="500" viewBox="0 0 1200 500" role="img" aria-labelledby="title desc">
  <title id="title">Download Aplikasi MRXPANEL Android</title>
  <desc id="desc">Banner resmi MRXPANEL untuk download aplikasi Android.</desc>
  <defs>
    <linearGradient id="bg" x1="0" y1="0" x2="1" y2="1">
      <stop offset="0" stop-color="#101114"/>
      <stop offset="1" stop-color="#1b1e24"/>
    </linearGradient>
    <linearGradient id="gold" x1="0" y1="0" x2="1" y2="1">
      <stop offset="0" stop-color="#f1cc6c"/>
      <stop offset="1" stop-color="#d6a73a"/>
    </linearGradient>
    <filter id="shadow" x="-30%" y="-30%" width="160%" height="160%">
      <feDropShadow dx="0" dy="18" stdDeviation="24" flood-color="#000" flood-opacity=".3"/>
    </filter>
  </defs>
  <rect width="1200" height="500" rx="34" fill="url(#bg)"/>
  <circle cx="1080" cy="88" r="210" fill="#d8a928" opacity=".07"/>
  <circle cx="1020" cy="430" r="170" fill="#f1cc6c" opacity=".05"/>
  <path d="M0 438 C240 360 370 520 610 432 C825 353 968 397 1200 330 L1200 500 L0 500Z" fill="#d8a928" opacity=".06"/>

  <g transform="translate(68 62)">
    <rect width="70" height="70" rx="20" fill="url(#gold)"/>
    <text x="35" y="48" text-anchor="middle" font-family="Arial,Helvetica,sans-serif" font-size="38" font-weight="900" fill="#111318">M</text>
    <text x="92" y="31" font-family="Arial,Helvetica,sans-serif" font-size="30" font-weight="800" fill="#fff">MRXPANEL</text>
    <text x="92" y="57" font-family="Arial,Helvetica,sans-serif" font-size="16" font-weight="600" fill="#f1cc6c">APLIKASI ANDROID RESMI</text>
  </g>

  <g transform="translate(68 182)">
    <text x="0" y="0" font-family="Arial,Helvetica,sans-serif" font-size="51" font-weight="800" fill="#fff">MRXPANEL sekarang</text>
    <text x="0" y="61" font-family="Arial,Helvetica,sans-serif" font-size="51" font-weight="800" fill="#fff">lebih praktis di Android.</text>
    <text x="0" y="112" font-family="Arial,Helvetica,sans-serif" font-size="21" fill="#aeb4bf">Pesan layanan, cek saldo, deposit, pantau pesanan, dan tiket bantuan.</text>
    <g transform="translate(0 148)">
      <rect width="284" height="62" rx="15" fill="url(#gold)"/>
      <text x="142" y="40" text-anchor="middle" font-family="Arial,Helvetica,sans-serif" font-size="20" font-weight="800" fill="#111318">DOWNLOAD APLIKASI</text>
    </g>
  </g>

  <g transform="translate(865 80)" filter="url(#shadow)">
    <rect x="0" y="0" width="250" height="358" rx="38" fill="#090a0c" stroke="#343943" stroke-width="4"/>
    <rect x="17" y="20" width="216" height="318" rx="26" fill="#f5f6f8"/>
    <rect x="17" y="20" width="216" height="96" rx="26" fill="#111318"/>
    <circle cx="55" cy="65" r="18" fill="#d8a928"/>
    <text x="83" y="61" font-family="Arial,Helvetica,sans-serif" font-size="15" font-weight="800" fill="#fff">MRXPANEL</text>
    <text x="83" y="82" font-family="Arial,Helvetica,sans-serif" font-size="10" fill="#aeb4bf">Member Area</text>
    <rect x="34" y="137" width="182" height="64" rx="16" fill="#111318"/>
    <text x="48" y="160" font-family="Arial,Helvetica,sans-serif" font-size="10" fill="#aeb4bf">Saldo tersedia</text>
    <text x="48" y="184" font-family="Arial,Helvetica,sans-serif" font-size="19" font-weight="800" fill="#fff">Rp •••••••</text>
    <rect x="34" y="218" width="84" height="82" rx="15" fill="#fff" stroke="#e0e2e6"/>
    <rect x="132" y="218" width="84" height="82" rx="15" fill="#fff" stroke="#e0e2e6"/>
    <circle cx="76" cy="246" r="13" fill="#ffe8a6"/>
    <circle cx="174" cy="246" r="13" fill="#ffe8a6"/>
    <text x="76" y="278" text-anchor="middle" font-family="Arial,Helvetica,sans-serif" font-size="9" font-weight="700" fill="#111318">Layanan</text>
    <text x="174" y="278" text-anchor="middle" font-family="Arial,Helvetica,sans-serif" font-size="9" font-weight="700" fill="#111318">Pesanan</text>
  </g>
</svg>
